<svg width="154" height="154" viewBox="0 0 154 154" fill="none" xmlns="http://www.w3.org/2000/svg">
<path d="M95.052 58.3998C93.8896 56.3834 92.2007 54.7211 90.1662 53.5908C88.1317 52.4605 85.8281 51.9048 83.502 51.9831H77.0853M58.9903 59.497C58.0999 61.4519 57.7145 63.599 57.8693 65.7414C58.0242 67.8839 58.7143 69.9533 59.8765 71.7598C61.0387 73.5663 62.6358 75.0522 64.5213 76.0813C66.4069 77.1104 68.5206 77.6497 70.6686 77.6498H77.0853M95.206 95.7576C94.1902 98.0108 92.5453 99.9227 90.4691 101.264C88.3928 102.605 85.9736 103.317 83.502 103.316H70.6686C68.3425 103.395 66.0389 102.839 64.0044 101.709C61.9699 100.578 60.281 98.9161 59.1186 96.8998" stroke="black" stroke-width="10" stroke-linecap="round" stroke-linejoin="round"/>
<path d="M128.689 103.605C134.156 92.7537 136.061 80.4543 134.133 68.4574C132.205 56.4605 126.542 45.3774 117.95 36.7855C109.358 28.1936 98.2749 22.5306 86.278 20.6026C74.2811 18.6745 61.9817 20.5797 51.1303 26.0468M36.2565 36.8076C30.8212 42.153 26.498 48.5217 23.5363 55.5463C20.5746 62.5708 19.0331 70.1123 19.0005 77.7356C18.968 85.359 20.4451 92.9133 23.3468 99.9629C26.2484 107.012 30.5171 113.418 35.9066 118.809C41.2961 124.201 47.6997 128.472 54.7482 131.377C61.7966 134.281 69.3504 135.761 76.9737 135.732C84.5971 135.702 92.1391 134.163 99.1649 131.205C106.191 128.246 112.561 123.925 117.909 118.492M77.0857 39.1497V51.983M77.0857 103.316V116.15M19.3357 19.8997L134.836 135.4" stroke="black" stroke-width="10" stroke-linecap="round" stroke-linejoin="round"/>
</svg>
