<svg width="154" height="154" viewBox="0 0 154 154" fill="none" xmlns="http://www.w3.org/2000/svg">
<path d="M97.647 60C102.96 60 107.272 64.312 107.272 69.625V106.745C107.272 114.769 104.084 122.464 98.4104 128.138C92.7364 133.812 85.0408 137 77.0165 137C68.9922 137 61.2966 133.812 55.6226 128.138C49.9486 122.464 46.761 114.769 46.761 106.745V69.625C46.761 64.312 51.0675 60 56.386 60H97.647ZM20.625 60L44.726 59.989C42.7441 62.3772 41.5509 65.3209 41.3105 68.415L41.2555 69.625V106.745C41.2555 112.976 42.856 118.839 45.6555 123.943C41.8875 125.587 37.7694 126.267 33.673 125.921C29.5765 125.575 25.6307 124.215 22.1917 121.962C18.7527 119.71 15.9287 116.636 13.9748 113.019C12.0209 109.402 10.9985 105.356 11 101.245V69.625C11.0029 67.0722 12.0187 64.6249 13.8243 62.8204C15.6299 61.0158 18.0722 60.0015 20.625 60ZM109.312 59.989L133.375 60C138.688 60 143 64.312 143 69.625V101.25C143.002 105.359 141.98 109.405 140.027 113.02C138.075 116.636 135.252 119.709 131.815 121.961C128.378 124.214 124.434 125.575 120.34 125.922C116.245 126.269 112.128 125.59 108.361 123.949L108.669 123.387C111.028 118.916 112.464 113.878 112.728 108.538L112.772 106.745V69.625C112.772 65.962 111.474 62.607 109.312 59.989ZM77 16C79.5279 16 82.0311 16.4979 84.3667 17.4653C86.7022 18.4327 88.8243 19.8507 90.6118 21.6382C92.3993 23.4257 93.8173 25.5478 94.7847 27.8833C95.7521 30.2189 96.25 32.7221 96.25 35.25C96.25 37.7779 95.7521 40.2811 94.7847 42.6167C93.8173 44.9522 92.3993 47.0743 90.6118 48.8618C88.8243 50.6493 86.7022 52.0673 84.3667 53.0347C82.0311 54.0021 79.5279 54.5 77 54.5C71.8946 54.5 66.9983 52.4719 63.3882 48.8618C59.7781 45.2517 57.75 40.3554 57.75 35.25C57.75 30.1446 59.7781 25.2483 63.3882 21.6382C66.9983 18.0281 71.8946 16 77 16ZM121.017 21.5C123.183 21.5 125.329 21.9268 127.331 22.756C129.333 23.5852 131.152 24.8006 132.684 26.3327C134.216 27.8649 135.431 29.6839 136.261 31.6857C137.09 33.6876 137.517 35.8332 137.517 38C137.517 40.1668 137.09 42.3124 136.261 44.3143C135.431 46.3161 134.216 48.1351 132.684 49.6673C131.152 51.1994 129.333 52.4148 127.331 53.244C125.329 54.0732 123.183 54.5 121.017 54.5C116.64 54.5 112.444 52.7616 109.349 49.6673C106.255 46.5729 104.517 42.3761 104.517 38C104.517 33.6239 106.255 29.4271 109.349 26.3327C112.444 23.2384 116.64 21.5 121.017 21.5ZM32.9835 21.5C35.1503 21.5 37.2959 21.9268 39.2978 22.756C41.2997 23.5852 43.1186 24.8006 44.6508 26.3327C46.1829 27.8649 47.3983 29.6839 48.2275 31.6857C49.0567 33.6876 49.4835 35.8332 49.4835 38C49.4835 40.1668 49.0567 42.3124 48.2275 44.3143C47.3983 46.3161 46.1829 48.1351 44.6508 49.6673C43.1186 51.1994 41.2997 52.4148 39.2978 53.244C37.2959 54.0732 35.1503 54.5 32.9835 54.5C28.6074 54.5 24.4106 52.7616 21.3162 49.6673C18.2219 46.5729 16.4835 42.3761 16.4835 38C16.4835 33.6239 18.2219 29.4271 21.3162 26.3327C24.4106 23.2384 28.6074 21.5 32.9835 21.5Z" fill="black"/>
</svg>
