<svg width="42" height="43" viewBox="0 0 42 43" fill="none" xmlns="http://www.w3.org/2000/svg">
<path d="M35.864 6.58666C33.9301 4.63808 31.6268 3.0933 29.0884 2.04244C26.55 0.991571 23.8273 0.455661 21.0791 0.465966C9.56391 0.465966 0.179307 9.82858 0.168759 21.3226C0.168759 25.004 1.13385 28.5854 2.95593 31.7562L0 42.5688L11.0854 39.6689C14.1507 41.3379 17.5872 42.2111 21.0791 42.2083H21.0896C32.6075 42.2083 41.9894 32.8456 42 21.3411C42.0023 18.5993 41.4612 15.8841 40.4076 13.3519C39.3541 10.8197 37.8117 8.52049 35.864 6.58666ZM21.0791 38.6769C17.9654 38.6744 14.9094 37.8384 12.2298 36.256L11.5969 35.877L5.02059 37.598L6.77674 31.1957L6.36539 30.5353C4.62455 27.7731 3.70387 24.5751 3.71007 21.3121C3.71007 11.7706 11.5073 3.98681 21.0896 3.98681C23.3725 3.98273 25.6336 4.42961 27.7425 5.30171C29.8515 6.17381 31.7666 7.45387 33.3774 9.06809C34.9936 10.6763 36.2748 12.5877 37.1474 14.6923C38.0199 16.7969 38.4665 19.053 38.4613 21.3305C38.4508 30.9063 30.6536 38.6769 21.0791 38.6769ZM30.6114 25.6934C30.0919 25.4329 27.5262 24.1725 27.0437 23.9935C26.5638 23.8225 26.2131 23.733 25.8703 24.254C25.5196 24.7724 24.5176 25.9539 24.217 26.2934C23.9164 26.6434 23.6052 26.6828 23.0831 26.425C22.5637 26.1618 20.8787 25.6145 18.8852 23.833C17.3295 22.4515 16.2879 20.7411 15.9768 20.2227C15.6762 19.7017 15.9478 19.4227 16.2088 19.1622C16.4382 18.9307 16.7283 18.5517 16.9893 18.2518C17.253 17.9518 17.34 17.7307 17.5114 17.3834C17.6828 17.0308 17.6011 16.7308 17.4719 16.4703C17.34 16.2098 16.2985 13.6389 15.8581 12.6021C15.4362 11.5785 15.0064 11.7206 14.6847 11.7074C14.3841 11.689 14.0334 11.689 13.6827 11.689C13.4179 11.6957 13.1573 11.7569 12.9173 11.8688C12.6773 11.9806 12.463 12.1407 12.2878 12.339C11.8079 12.86 10.4657 14.1204 10.4657 16.6913C10.4657 19.2622 12.3379 21.7331 12.6016 22.0831C12.86 22.4331 16.2774 27.6933 21.5221 29.9563C22.7614 30.4958 23.7371 30.8142 24.4991 31.0563C25.7516 31.4563 26.8828 31.3957 27.7846 31.2668C28.7867 31.1142 30.8724 30.0037 31.3128 28.7854C31.7452 27.5644 31.7452 26.5223 31.6134 26.3039C31.4842 26.0829 31.1335 25.9539 30.6114 25.6934Z" fill="black"/>
</svg>
