<svg width="154" height="154" viewBox="0 0 154 154" fill="none" xmlns="http://www.w3.org/2000/svg">
<path d="M79.7431 18.0831C79.4043 17.6874 78.9838 17.3697 78.5105 17.1519C78.0373 16.9341 77.5225 16.8213 77.0015 16.8213C76.4805 16.8213 75.9657 16.9341 75.4925 17.1519C75.0192 17.3697 74.5987 17.6874 74.2599 18.0831C64.7371 29.221 33.6875 67.727 33.6875 96.2501C33.6875 122.83 50.423 139.563 77 139.563C103.577 139.563 120.312 122.83 120.312 96.2501C120.312 67.727 89.2629 29.221 79.7431 18.0831ZM81.8125 123.922C81.2344 123.923 80.6645 123.786 80.1506 123.521C79.6368 123.256 79.1941 122.871 78.8598 122.4C78.5255 121.928 78.3094 121.383 78.2297 120.81C78.15 120.238 78.2089 119.655 78.4016 119.109C78.6478 118.398 79.112 117.783 79.7281 117.351C80.3443 116.919 81.0811 116.692 81.8336 116.703C86.6111 116.693 91.1901 114.79 94.5683 111.412C97.9466 108.034 99.849 103.455 99.8594 98.6774C99.8484 97.925 100.075 97.1882 100.507 96.572C100.939 95.9558 101.554 95.4916 102.266 95.2455C102.811 95.0528 103.394 94.9938 103.967 95.0736C104.539 95.1533 105.084 95.3694 105.556 95.7037C106.028 96.038 106.412 96.4807 106.677 96.9945C106.942 97.5083 107.079 98.0783 107.078 98.6564C107.071 105.355 104.407 111.777 99.6701 116.514C94.9334 121.251 88.5112 123.915 81.8125 123.922Z" fill="black"/>
</svg>
